<mxfile host="app.diagrams.net" modified="2023-04-29T01:32:12.076Z" agent="Mozilla/5.0 (Windows NT 10.0; Win64; x64) AppleWebKit/537.36 (KHTML, like Gecko) Chrome/112.0.0.0 Safari/537.36" etag="NTrL1c80O-J-Vv-VvS0B" version="21.2.3" type="device" pages="3">
  <diagram id="6hGFLwfOUW9BJ-s0fimq" name="Workflow">
    <mxGraphModel dx="794" dy="438" grid="1" gridSize="10" guides="1" tooltips="1" connect="1" arrows="1" fold="1" page="1" pageScale="1" pageWidth="827" pageHeight="1169" math="0" shadow="0">
      <root>
        <mxCell id="0" />
        <mxCell id="1" parent="0" />
        <mxCell id="ShS8VVbrJqrxxZpgxNli-8" value="" style="endArrow=classic;html=1;fontFamily=Verdana;" parent="1" source="3" target="IoZqsQ1IaIWH3A_rACPY-11" edge="1">
          <mxGeometry width="50" height="50" relative="1" as="geometry">
            <mxPoint x="379.4" y="80.5" as="sourcePoint" />
            <mxPoint x="471.4" y="80.5" as="targetPoint" />
            <Array as="points">
              <mxPoint x="324" y="179" />
            </Array>
          </mxGeometry>
        </mxCell>
        <mxCell id="ShS8VVbrJqrxxZpgxNli-9" value="Put" style="edgeLabel;html=1;align=center;verticalAlign=middle;resizable=0;points=[];" parent="ShS8VVbrJqrxxZpgxNli-8" vertex="1" connectable="0">
          <mxGeometry x="-0.1304" y="1" relative="1" as="geometry">
            <mxPoint x="25.22" y="5.93" as="offset" />
          </mxGeometry>
        </mxCell>
        <mxCell id="2" value="GitHub" style="dashed=0;outlineConnect=0;html=1;align=center;labelPosition=center;verticalLabelPosition=bottom;verticalAlign=top;shape=mxgraph.weblogos.github;fontFamily=Verdana;" parent="1" vertex="1">
          <mxGeometry x="127" y="31.5" width="75" height="75" as="geometry" />
        </mxCell>
        <mxCell id="3" value="CodeBuild" style="outlineConnect=0;fontColor=#232F3E;gradientColor=#4D72F3;gradientDirection=north;fillColor=#3334B9;strokeColor=#ffffff;dashed=0;verticalLabelPosition=bottom;verticalAlign=top;align=center;html=1;fontSize=12;fontStyle=0;aspect=fixed;shape=mxgraph.aws4.resourceIcon;resIcon=mxgraph.aws4.codebuild;fontFamily=Verdana;labelBackgroundColor=#ffffff;" parent="1" vertex="1">
          <mxGeometry x="281.4" y="31.5" width="78" height="78" as="geometry" />
        </mxCell>
        <mxCell id="4" value="&lt;span style=&quot;background-color: rgb(255 , 255 , 255)&quot;&gt;CodePipeline&lt;/span&gt;" style="outlineConnect=0;fontColor=#232F3E;gradientColor=#4D72F3;gradientDirection=north;fillColor=#3334B9;strokeColor=#ffffff;dashed=0;verticalLabelPosition=bottom;verticalAlign=top;align=center;html=1;fontSize=12;fontStyle=0;aspect=fixed;shape=mxgraph.aws4.resourceIcon;resIcon=mxgraph.aws4.codepipeline;fontFamily=Verdana;" parent="1" vertex="1">
          <mxGeometry x="414" y="28.5" width="78" height="78" as="geometry" />
        </mxCell>
        <mxCell id="IoZqsQ1IaIWH3A_rACPY-4" value="Infra Admin" style="shadow=0;dashed=0;html=1;strokeColor=none;fillColor=#4495D1;labelPosition=center;verticalLabelPosition=bottom;verticalAlign=top;align=center;outlineConnect=0;shape=mxgraph.veeam.portal_admin;fontFamily=Verdana;" parent="1" vertex="1">
          <mxGeometry x="23.000000000000014" y="43.099999999999994" width="44.4" height="48.8" as="geometry" />
        </mxCell>
        <mxCell id="IoZqsQ1IaIWH3A_rACPY-5" value="" style="endArrow=classic;html=1;fontFamily=Verdana;" parent="1" source="IoZqsQ1IaIWH3A_rACPY-4" target="2" edge="1">
          <mxGeometry width="50" height="50" relative="1" as="geometry">
            <mxPoint x="123.00000000000009" y="67.89038686987101" as="sourcePoint" />
            <mxPoint x="518.6" y="170" as="targetPoint" />
          </mxGeometry>
        </mxCell>
        <mxCell id="ShS8VVbrJqrxxZpgxNli-6" value="Push" style="edgeLabel;html=1;align=center;verticalAlign=middle;resizable=0;points=[];" parent="IoZqsQ1IaIWH3A_rACPY-5" vertex="1" connectable="0">
          <mxGeometry relative="1" as="geometry">
            <mxPoint y="-8.16" as="offset" />
          </mxGeometry>
        </mxCell>
        <mxCell id="4KkvZnJF2IEPJ9vbtY3e-16" value="" style="edgeStyle=orthogonalEdgeStyle;rounded=0;orthogonalLoop=1;jettySize=auto;html=1;" parent="1" edge="1">
          <mxGeometry relative="1" as="geometry">
            <mxPoint x="603.7" y="147.98000000000002" as="targetPoint" />
            <mxPoint x="604" y="100" as="sourcePoint" />
            <Array as="points">
              <mxPoint x="604" y="110" />
              <mxPoint x="604" y="110" />
            </Array>
          </mxGeometry>
        </mxCell>
        <mxCell id="IoZqsQ1IaIWH3A_rACPY-12" value="Resources" style="outlineConnect=0;dashed=0;verticalLabelPosition=bottom;verticalAlign=top;align=center;html=1;shape=mxgraph.aws3.resources;fillColor=#759C3E;gradientColor=none;fontFamily=Verdana;" parent="1" vertex="1">
          <mxGeometry x="585.35" y="150.00000000000003" width="36.69" height="34.74" as="geometry" />
        </mxCell>
        <mxCell id="IoZqsQ1IaIWH3A_rACPY-21" value="" style="group" parent="1" vertex="1" connectable="0">
          <mxGeometry x="374.99999999999994" y="140" width="78" height="78" as="geometry" />
        </mxCell>
        <mxCell id="IoZqsQ1IaIWH3A_rACPY-11" value="S3 Artifact" style="outlineConnect=0;fontColor=#232F3E;gradientColor=#60A337;gradientDirection=north;fillColor=#277116;strokeColor=#ffffff;dashed=0;verticalLabelPosition=bottom;verticalAlign=top;align=center;html=1;fontSize=12;fontStyle=0;aspect=fixed;shape=mxgraph.aws4.resourceIcon;resIcon=mxgraph.aws4.s3;fontFamily=Verdana;" parent="IoZqsQ1IaIWH3A_rACPY-21" vertex="1">
          <mxGeometry width="78" height="78" as="geometry" />
        </mxCell>
        <mxCell id="IoZqsQ1IaIWH3A_rACPY-10" value="" style="outlineConnect=0;dashed=0;verticalLabelPosition=bottom;verticalAlign=top;align=center;html=1;shape=mxgraph.aws3.desired_state;fillColor=#5294CF;gradientColor=none;fontFamily=Verdana;" parent="IoZqsQ1IaIWH3A_rACPY-21" vertex="1">
          <mxGeometry x="54" y="50.53000000000003" width="22" height="25.05" as="geometry" />
        </mxCell>
        <mxCell id="ShS8VVbrJqrxxZpgxNli-5" value="Fetch" style="endArrow=classic;html=1;" parent="1" source="3" target="2" edge="1">
          <mxGeometry width="50" height="50" relative="1" as="geometry">
            <mxPoint x="351.4" y="300" as="sourcePoint" />
            <mxPoint x="401.4" y="250" as="targetPoint" />
            <Array as="points">
              <mxPoint x="320.4" y="10" />
              <mxPoint x="164.4" y="10" />
            </Array>
          </mxGeometry>
        </mxCell>
        <mxCell id="ShS8VVbrJqrxxZpgxNli-11" value="" style="endArrow=classic;html=1;fontFamily=Verdana;entryX=0;entryY=0.5;entryDx=0;entryDy=0;" parent="1" source="4" edge="1">
          <mxGeometry width="50" height="50" relative="1" as="geometry">
            <mxPoint x="531.4" y="71" as="sourcePoint" />
            <mxPoint x="566.4000000000001" y="69.74000000000001" as="targetPoint" />
          </mxGeometry>
        </mxCell>
        <mxCell id="ShS8VVbrJqrxxZpgxNli-12" value="Deploy" style="edgeLabel;html=1;align=center;verticalAlign=middle;resizable=0;points=[];" parent="ShS8VVbrJqrxxZpgxNli-11" vertex="1" connectable="0">
          <mxGeometry relative="1" as="geometry">
            <mxPoint x="-2" y="-9" as="offset" />
          </mxGeometry>
        </mxCell>
        <mxCell id="ShS8VVbrJqrxxZpgxNli-13" value="" style="endArrow=classic;html=1;fontFamily=Verdana;" parent="1" source="2" target="3" edge="1">
          <mxGeometry width="50" height="50" relative="1" as="geometry">
            <mxPoint x="55.80000000000009" y="77.73633782824697" as="sourcePoint" />
            <mxPoint x="136.99999999999991" y="78.60078069552878" as="targetPoint" />
          </mxGeometry>
        </mxCell>
        <mxCell id="ShS8VVbrJqrxxZpgxNli-14" value="Webhook" style="edgeLabel;html=1;align=center;verticalAlign=middle;resizable=0;points=[];" parent="ShS8VVbrJqrxxZpgxNli-13" vertex="1" connectable="0">
          <mxGeometry relative="1" as="geometry">
            <mxPoint y="-9.75" as="offset" />
          </mxGeometry>
        </mxCell>
        <mxCell id="T-Wf9qkOo63agv5fQ_Tc-4" value="" style="outlineConnect=0;dashed=0;verticalLabelPosition=bottom;verticalAlign=top;align=center;html=1;shape=mxgraph.aws3.cloudformation;fillColor=#759C3E;gradientColor=none;" parent="1" vertex="1">
          <mxGeometry x="568.69" y="39" width="70" height="60" as="geometry" />
        </mxCell>
        <mxCell id="T-Wf9qkOo63agv5fQ_Tc-18" style="edgeStyle=orthogonalEdgeStyle;rounded=0;orthogonalLoop=1;jettySize=auto;html=1;endArrow=none;endFill=0;startArrow=classic;startFill=1;" parent="1" source="IoZqsQ1IaIWH3A_rACPY-11" target="4" edge="1">
          <mxGeometry relative="1" as="geometry">
            <Array as="points">
              <mxPoint x="400" y="80" />
              <mxPoint x="400" y="80" />
            </Array>
          </mxGeometry>
        </mxCell>
        <mxCell id="x-PLrf8hooBg-WpvpRJl-4" value="Poll" style="text;html=1;align=center;verticalAlign=middle;resizable=0;points=[];labelBackgroundColor=#ffffff;" parent="T-Wf9qkOo63agv5fQ_Tc-18" vertex="1" connectable="0">
          <mxGeometry x="0.3873" y="18" relative="1" as="geometry">
            <mxPoint x="18" y="18" as="offset" />
          </mxGeometry>
        </mxCell>
      </root>
    </mxGraphModel>
  </diagram>
  <diagram name="CodePipeline" id="q7LChu7GdGCIANMDUned">
    <mxGraphModel dx="1002" dy="435" grid="1" gridSize="10" guides="1" tooltips="1" connect="1" arrows="1" fold="1" page="1" pageScale="1" pageWidth="827" pageHeight="1169" math="0" shadow="0">
      <root>
        <mxCell id="QZHNi6gCAEQePnKjw-5V-0" />
        <mxCell id="QZHNi6gCAEQePnKjw-5V-1" parent="QZHNi6gCAEQePnKjw-5V-0" />
        <mxCell id="QZHNi6gCAEQePnKjw-5V-27" value="" style="edgeStyle=orthogonalEdgeStyle;rounded=0;orthogonalLoop=1;jettySize=auto;html=1;" edge="1" parent="QZHNi6gCAEQePnKjw-5V-1" source="QZHNi6gCAEQePnKjw-5V-4" target="QZHNi6gCAEQePnKjw-5V-26">
          <mxGeometry relative="1" as="geometry" />
        </mxCell>
        <mxCell id="QZHNi6gCAEQePnKjw-5V-4" value="&lt;p style=&quot;color: rgb(0 , 0 , 0) ; background-color: rgb(255 , 255 , 255) ; line-height: 18px&quot;&gt;&lt;br&gt;&lt;/p&gt;" style="outlineConnect=0;fontColor=#232F3E;gradientColor=#4D72F3;gradientDirection=north;fillColor=#3334B9;strokeColor=#ffffff;dashed=0;verticalLabelPosition=bottom;verticalAlign=top;align=center;html=1;fontSize=12;fontStyle=0;aspect=fixed;shape=mxgraph.aws4.resourceIcon;resIcon=mxgraph.aws4.codebuild;fontFamily=Verdana;" vertex="1" parent="QZHNi6gCAEQePnKjw-5V-1">
          <mxGeometry x="160" y="40" width="78" height="78" as="geometry" />
        </mxCell>
        <mxCell id="QZHNi6gCAEQePnKjw-5V-31" value="" style="edgeStyle=orthogonalEdgeStyle;rounded=0;orthogonalLoop=1;jettySize=auto;html=1;" edge="1" parent="QZHNi6gCAEQePnKjw-5V-1" source="QZHNi6gCAEQePnKjw-5V-26" target="QZHNi6gCAEQePnKjw-5V-30">
          <mxGeometry relative="1" as="geometry" />
        </mxCell>
        <mxCell id="QZHNi6gCAEQePnKjw-5V-26" value="&lt;div style=&quot;color: rgb(0 , 0 , 0) ; background-color: rgb(255 , 255 , 255) ; font-family: &amp;#34;menlo&amp;#34; , &amp;#34;monaco&amp;#34; , &amp;#34;courier new&amp;#34; , monospace ; line-height: 18px&quot;&gt;&lt;div style=&quot;font-family: &amp;#34;menlo&amp;#34; , &amp;#34;monaco&amp;#34; , &amp;#34;courier new&amp;#34; , monospace ; line-height: 18px&quot;&gt;&lt;br&gt;&lt;/div&gt;&lt;/div&gt;" style="outlineConnect=0;fontColor=#232F3E;gradientColor=#4D72F3;gradientDirection=north;fillColor=#3334B9;strokeColor=#ffffff;dashed=0;verticalLabelPosition=bottom;verticalAlign=top;align=center;html=1;fontSize=12;fontStyle=0;aspect=fixed;shape=mxgraph.aws4.resourceIcon;resIcon=mxgraph.aws4.codebuild;fontFamily=Verdana;" vertex="1" parent="QZHNi6gCAEQePnKjw-5V-1">
          <mxGeometry x="300" y="40" width="78" height="78" as="geometry" />
        </mxCell>
        <mxCell id="QZHNi6gCAEQePnKjw-5V-30" value="&lt;div style=&quot;color: rgb(0 , 0 , 0) ; background-color: rgb(255 , 255 , 255) ; font-family: &amp;#34;menlo&amp;#34; , &amp;#34;monaco&amp;#34; , &amp;#34;courier new&amp;#34; , monospace ; line-height: 18px&quot;&gt;&lt;div style=&quot;font-family: &amp;#34;menlo&amp;#34; , &amp;#34;monaco&amp;#34; , &amp;#34;courier new&amp;#34; , monospace ; line-height: 18px&quot;&gt;&lt;br&gt;&lt;/div&gt;&lt;/div&gt;" style="outlineConnect=0;fontColor=#232F3E;gradientColor=#4D72F3;gradientDirection=north;fillColor=#3334B9;strokeColor=#ffffff;dashed=0;verticalLabelPosition=bottom;verticalAlign=top;align=center;html=1;fontSize=12;fontStyle=0;aspect=fixed;shape=mxgraph.aws4.resourceIcon;resIcon=mxgraph.aws4.codebuild;fontFamily=Verdana;" vertex="1" parent="QZHNi6gCAEQePnKjw-5V-1">
          <mxGeometry x="442.62" y="40" width="78" height="78" as="geometry" />
        </mxCell>
        <mxCell id="QZHNi6gCAEQePnKjw-5V-5" value="" style="edgeStyle=orthogonalEdgeStyle;rounded=0;orthogonalLoop=1;jettySize=auto;html=1;fontFamily=Verdana;" edge="1" parent="QZHNi6gCAEQePnKjw-5V-1" source="QZHNi6gCAEQePnKjw-5V-6" target="QZHNi6gCAEQePnKjw-5V-4">
          <mxGeometry relative="1" as="geometry">
            <mxPoint x="440" y="69" as="targetPoint" />
            <Array as="points" />
          </mxGeometry>
        </mxCell>
        <mxCell id="QZHNi6gCAEQePnKjw-5V-6" value="&lt;span style=&quot;background-color: rgb(255 , 255 , 255)&quot;&gt;CodePipeline&lt;/span&gt;" style="outlineConnect=0;fontColor=#232F3E;gradientColor=#4D72F3;gradientDirection=north;fillColor=#3334B9;strokeColor=#ffffff;dashed=0;verticalLabelPosition=bottom;verticalAlign=top;align=center;html=1;fontSize=12;fontStyle=0;aspect=fixed;shape=mxgraph.aws4.resourceIcon;resIcon=mxgraph.aws4.codepipeline;fontFamily=Verdana;" vertex="1" parent="QZHNi6gCAEQePnKjw-5V-1">
          <mxGeometry x="40" y="40" width="78" height="78" as="geometry" />
        </mxCell>
        <mxCell id="QZHNi6gCAEQePnKjw-5V-12" value="" style="shape=image;verticalLabelPosition=bottom;labelBackgroundColor=#ffffff;verticalAlign=top;aspect=fixed;imageAspect=0;image=data:image/png,iVBORw0KGgoAAAANSUhEUgAAAT4AAACfCAMAAABX0UX9AAAA8FBMVEX///9cTuUAAABAQLJbTOVVRuTNyfawq/FMTEz5+P5XSeQ1Na/Ly+mMguyjo9gvL65LOuP29vZERESGhoa1tbXU1NRhYWFZWVlSUlKkpKSbm5s/Pz/m5uYICAh4eHjt7e3Kyspvb2/o5vvV0vjAwMAdHR3Q0NDn5+e2trYpKSk2Njbc3NxSQuReXl4nJycQEBDDv/WMg+xvYujz8v2hmu/k4vqBd+pjVea6tfNwcMNGRraIiM0rK62Siu1/f3+RkZGqpPBdXbx3bOnb2PlqXedHNOMhIat6esi4uOHW1u5PT7iurtyclO6UlNG9ufNkZL4NU1eTAAAJe0lEQVR4nO2caUPaSBiAAYlcag0EIYAQEBAIghWv2gIe3dp23e7//zc7V5LJMTkIgq7v80WHJEPmSebNXCSRAAAAAAAAAAAAAAAAAAAAAAAAAAAA2Bb3T9s+g3fN/uFlZ9vn8I7Zz0vfb2fbPot3y34+mR4/7m77NN4rSF8ymU/vX237RN4nRF8yLaUvoQavANWHBX6/zW37ZN4fhj4kcHwNITAqlj4cAj9DCIwGrw/V4OQ9hMAo2PSREHgOITA8Dn0kBEI/LjQufTgEzqEfFxIPfagG32SgBofCSx8JgbsgMATe+rDAzxACgxHpS6bz6RdoxAQh1IefwRe32z69t46PPiTwLwiA/vjqSx6CPn+C9WXiDUbnDg7Wda5vkBD6Dh9PVs9/78uPD65PykvXK47E/HouFAofXR/uhlyukHfuYKewswP6SD8u6mB07ieWB/ok8m96vB8pBP76QuSBPokl8ofz0CGw8/yJ2QN9ZhLV4HC5Hvw25IE+Sx+qwcngkZjczztLHuiT+E/SUtCMOmqs7OyAPm99yTQKgT7dkM7Xb3Z7oM/xYVq6yIiy+/u3Qx7oc+rDIfC714x6bu/3J6c80OfWhxoxeXcjpvPsuvNAn7c+VIMd6ypnrqD3EfTNx37+xPpICDy38vn7wVve/1xfYvdCSq+kj4zms37c3oNH0PsQ+hKzjCQU6K8Pz6jj6aTZV6G7bek71bqaLm/muzovkqAGB+lDNRg9gvd+vC19einFKLY28oUnj94Cg/WlsT5xzeX1Ncoi1lvIbi9l0lhrzmL+PI49avBa9R2lRJTWWZL+sZXxcDN3H2L2knaHwLXqawv1LddZEP4qVTcU/jBXc1cNfo/6jExHw2mqvc6MA3E1Yt6hvj7N8khvnTZ0fY0Zh+H2u03ghvStM/YpNMv+GrOMQOclz9XgteqrHbUpR/TR2Gsb6cEaC6BSfRt7Zjh5+mw9g9eqz6JI4/qrnD7Vd7zBZ4aDnBUCX0ef/L/WhwRmbqjAjenTtS5C0M3S7TVRZnFN1vv4IK1vO8pbX4vs2he0ovvOvcvdwUDjkujstCgXpDNP5jemT65VUSMDMakvjGdlt55F4FT/rIdi4wInm6gIslqsoz/90llxSGLoca9eUWjZ1Gy1MqKxD++eLSo0f7UyIrv2RpWaYaFWRDvU8X9KpYe+p4oPaOCLUqrU8d7H5NvlxhIlUUt8WrV8huDkGoXAjehTpvxTmJVPYc9PrYr+qInEGU4OZVlFJZvoCc3x7O6RO3LpfKSrJKse/9FUpd9K+8Voax39KbPm4qBRm3C76i21zh0a6Wme+3MhbUJfzVHkBaev1iY9sBrrSxwr5MipljjtOY5Cn3noU7w+XHD6VHJZUuhg8kXDoW3P0ciWjNiHmd1vQF/XWbpU19LHKDk6zGgPe8EQEy9TA0dGlKWlj6EwfQFokfShRszr6yuyUxuOhqwSV2SnviPZrg+VNov+HE97k4l5G2o2fVOClmiNrE/MjS2nvlI4fWpEfZjX1cduvpHSkuUy65f0nfoWDn3IlNpUFa2vNxpltWgq0AfdbpMkjjWCbOZT6vb73RpzvXTqq9n19ez3tplsrqDvPOnjL1hf4e6nnz4W+egDt5UlCcWu7wgFdk7fZOnoUci05Gx4gDVcjI3sinRpqkzvwIpNX6+JMzT0Tc6URkseGLdqr6qipEaTZyvoSzy9iKeTAvUVnt2/j+P0yW2+6Kz2NXl9FVpyU1/J3Xaj4f9M5vWxKC8P7bcNvTdHDU5fm146qm9SY9nTC9lb6vxVWLGhv3stmg0J0Fd4+OWRHa+vSv6tsS2quYHpmxjhhumrlj3yW9BNLS999DAzaNEGT69s6htqbAvVZ479ZG2XlWlftZ+Uc4zEhNOH6q3ncixeX91WPFp23Jhl+ozCMX0jz7OjJrI++hRjV51u1YyDhuaQ1rHtOjJ9jrt2FX1XZEHQ7OXGKwT66Cvc/SNYSsTpa1F9wzplaEpi+sybjeoreuYXQ1/91NjiqW8Nd9/9xR/y9+raIwSK9X179qq3tEwufXZC6tMUlVKNoc+MpK+lLzOWruls+MlF3lmDRfoK/+6Jc1yHPlkdOlpqb1WflM6P6XqW2W3eEQK99RXuDvzWoK5DX9N11JvVR16xkSGBrPOSzAfpK9x99f8ZV5C+YbC+gfuoN6yPrGehS/pO9g/zvvo+fREGPaG+tsLTDdbnMW8SQV9q4/rwkr5HuqTv/NGqwS59hQefoMdw66u59vHX16KP6IouI6I/eaf9zetLpvNJ+p6w2b05o+7QVygchPj5Jd/uo6fpnqn013dq3kSYYH1ms5l2sa1m8wb1ca/YmM1ZCLTpK+x8DfUGE17fkeC8wujrsa1++kZ2DW1T2hb0ce8JO6FrYnh93/waKzz8kMHSoQltJRrC6MNPAMxCrM8IkmwqlA1SW0MGG9aHQqDE3hN2jufjLH2FB9fIigheH9PUq+mNRkPXu6U6rckBsY+OPC1OW61Gl7aaBfqMoYezLsrceODgurwlfdZ7wjr3Y8nQVyiIemge8Ppkc7hz2mODRG2u2AJ9coVuHmZHZuPZW1/LNSyNwBu3pY+EwHMi62qeJ8sjv+14DEuJsY02q67CEQ8BDRf3UQJ9Xi1E8iDZnj4skL0nbBcvD9+7Cxn0GPapIlf/YYqdBehrOaeKhPrcEyB0Rc029eEQuE9uuBxe2xzxh9JslCrLkvzcIPncSx8dEq2beWiWv5FKYlqR15fiJsW6tp5NnbUBqb6RqS9l11f00pdNREcw14EbMSvkhpHbeIq6aA6m6dZs6vRModP5WraCqJqlW1Zxmpts0I0B1MFpYoA2VhfUmNZuYvjvaw3MseqKYoxQqTRDc+D/iHyf2b5u4s1V02aNJFdZCSacKlrrqxJbZU2LuMZZLgtXXXjt3O+Xt7HwxWemDd4TFozfRGVakmK84+VDEDzPC/gA+mIB+mIB+mIB+mIB+mIB+mIB+mIB+mIB+mIB+mIB+mIB+mIB+mIB+mIB+mKR8XrFBugLC17SJxQI+oJ5ErwkB/SFZPdCUINBXyhmGY+X5IC+8Fxdev00C/SF5uTaHQJBXwTc7wkDfVGYXd7YQyDoi0ZnLvGtQNAXFdtPs0BfZHJ/bswQCPpWoHNp/DQL9K3EE3vfM+hbkV3y0yzQtyrkPWGgb3VmcyQQ9K3O0/UY9MXhHBbnAgAAAAAAAAAAAAAAAAAAAAAAAAAAbIL/APPtB533qjL2AAAAAElFTkSuQmCC;" vertex="1" parent="QZHNi6gCAEQePnKjw-5V-1">
          <mxGeometry x="198.99" y="81.27" width="25.01" height="12.5" as="geometry" />
        </mxCell>
        <mxCell id="QZHNi6gCAEQePnKjw-5V-34" value="" style="shape=image;verticalLabelPosition=bottom;labelBackgroundColor=#ffffff;verticalAlign=top;aspect=fixed;imageAspect=0;image=data:image/png,iVBORw0KGgoAAAANSUhEUgAAAT4AAACfCAMAAABX0UX9AAAA8FBMVEX///9cTuUAAABAQLJbTOVVRuTNyfawq/FMTEz5+P5XSeQ1Na/Ly+mMguyjo9gvL65LOuP29vZERESGhoa1tbXU1NRhYWFZWVlSUlKkpKSbm5s/Pz/m5uYICAh4eHjt7e3Kyspvb2/o5vvV0vjAwMAdHR3Q0NDn5+e2trYpKSk2Njbc3NxSQuReXl4nJycQEBDDv/WMg+xvYujz8v2hmu/k4vqBd+pjVea6tfNwcMNGRraIiM0rK62Siu1/f3+RkZGqpPBdXbx3bOnb2PlqXedHNOMhIat6esi4uOHW1u5PT7iurtyclO6UlNG9ufNkZL4NU1eTAAAJe0lEQVR4nO2caUPaSBiAAYlcag0EIYAQEBAIghWv2gIe3dp23e7//zc7V5LJMTkIgq7v80WHJEPmSebNXCSRAAAAAAAAAAAAAAAAAAAAAAAAAAAA2Bb3T9s+g3fN/uFlZ9vn8I7Zz0vfb2fbPot3y34+mR4/7m77NN4rSF8ymU/vX237RN4nRF8yLaUvoQavANWHBX6/zW37ZN4fhj4kcHwNITAqlj4cAj9DCIwGrw/V4OQ9hMAo2PSREHgOITA8Dn0kBEI/LjQufTgEzqEfFxIPfagG32SgBofCSx8JgbsgMATe+rDAzxACgxHpS6bz6RdoxAQh1IefwRe32z69t46PPiTwLwiA/vjqSx6CPn+C9WXiDUbnDg7Wda5vkBD6Dh9PVs9/78uPD65PykvXK47E/HouFAofXR/uhlyukHfuYKewswP6SD8u6mB07ieWB/ok8m96vB8pBP76QuSBPokl8ofz0CGw8/yJ2QN9ZhLV4HC5Hvw25IE+Sx+qwcngkZjczztLHuiT+E/SUtCMOmqs7OyAPm99yTQKgT7dkM7Xb3Z7oM/xYVq6yIiy+/u3Qx7oc+rDIfC714x6bu/3J6c80OfWhxoxeXcjpvPsuvNAn7c+VIMd6ypnrqD3EfTNx37+xPpICDy38vn7wVve/1xfYvdCSq+kj4zms37c3oNH0PsQ+hKzjCQU6K8Pz6jj6aTZV6G7bek71bqaLm/muzovkqAGB+lDNRg9gvd+vC19einFKLY28oUnj94Cg/WlsT5xzeX1Ncoi1lvIbi9l0lhrzmL+PI49avBa9R2lRJTWWZL+sZXxcDN3H2L2knaHwLXqawv1LddZEP4qVTcU/jBXc1cNfo/6jExHw2mqvc6MA3E1Yt6hvj7N8khvnTZ0fY0Zh+H2u03ghvStM/YpNMv+GrOMQOclz9XgteqrHbUpR/TR2Gsb6cEaC6BSfRt7Zjh5+mw9g9eqz6JI4/qrnD7Vd7zBZ4aDnBUCX0ef/L/WhwRmbqjAjenTtS5C0M3S7TVRZnFN1vv4IK1vO8pbX4vs2he0ovvOvcvdwUDjkujstCgXpDNP5jemT65VUSMDMakvjGdlt55F4FT/rIdi4wInm6gIslqsoz/90llxSGLoca9eUWjZ1Gy1MqKxD++eLSo0f7UyIrv2RpWaYaFWRDvU8X9KpYe+p4oPaOCLUqrU8d7H5NvlxhIlUUt8WrV8huDkGoXAjehTpvxTmJVPYc9PrYr+qInEGU4OZVlFJZvoCc3x7O6RO3LpfKSrJKse/9FUpd9K+8Voax39KbPm4qBRm3C76i21zh0a6Wme+3MhbUJfzVHkBaev1iY9sBrrSxwr5MipljjtOY5Cn3noU7w+XHD6VHJZUuhg8kXDoW3P0ciWjNiHmd1vQF/XWbpU19LHKDk6zGgPe8EQEy9TA0dGlKWlj6EwfQFokfShRszr6yuyUxuOhqwSV2SnviPZrg+VNov+HE97k4l5G2o2fVOClmiNrE/MjS2nvlI4fWpEfZjX1cduvpHSkuUy65f0nfoWDn3IlNpUFa2vNxpltWgq0AfdbpMkjjWCbOZT6vb73RpzvXTqq9n19ez3tplsrqDvPOnjL1hf4e6nnz4W+egDt5UlCcWu7wgFdk7fZOnoUci05Gx4gDVcjI3sinRpqkzvwIpNX6+JMzT0Tc6URkseGLdqr6qipEaTZyvoSzy9iKeTAvUVnt2/j+P0yW2+6Kz2NXl9FVpyU1/J3Xaj4f9M5vWxKC8P7bcNvTdHDU5fm146qm9SY9nTC9lb6vxVWLGhv3stmg0J0Fd4+OWRHa+vSv6tsS2quYHpmxjhhumrlj3yW9BNLS999DAzaNEGT69s6htqbAvVZ479ZG2XlWlftZ+Uc4zEhNOH6q3ncixeX91WPFp23Jhl+ozCMX0jz7OjJrI++hRjV51u1YyDhuaQ1rHtOjJ9jrt2FX1XZEHQ7OXGKwT66Cvc/SNYSsTpa1F9wzplaEpi+sybjeoreuYXQ1/91NjiqW8Nd9/9xR/y9+raIwSK9X179qq3tEwufXZC6tMUlVKNoc+MpK+lLzOWruls+MlF3lmDRfoK/+6Jc1yHPlkdOlpqb1WflM6P6XqW2W3eEQK99RXuDvzWoK5DX9N11JvVR16xkSGBrPOSzAfpK9x99f8ZV5C+YbC+gfuoN6yPrGehS/pO9g/zvvo+fREGPaG+tsLTDdbnMW8SQV9q4/rwkr5HuqTv/NGqwS59hQefoMdw66u59vHX16KP6IouI6I/eaf9zetLpvNJ+p6w2b05o+7QVygchPj5Jd/uo6fpnqn013dq3kSYYH1ms5l2sa1m8wb1ca/YmM1ZCLTpK+x8DfUGE17fkeC8wujrsa1++kZ2DW1T2hb0ce8JO6FrYnh93/waKzz8kMHSoQltJRrC6MNPAMxCrM8IkmwqlA1SW0MGG9aHQqDE3hN2jufjLH2FB9fIigheH9PUq+mNRkPXu6U6rckBsY+OPC1OW61Gl7aaBfqMoYezLsrceODgurwlfdZ7wjr3Y8nQVyiIemge8Ppkc7hz2mODRG2u2AJ9coVuHmZHZuPZW1/LNSyNwBu3pY+EwHMi62qeJ8sjv+14DEuJsY02q67CEQ8BDRf3UQJ9Xi1E8iDZnj4skL0nbBcvD9+7Cxn0GPapIlf/YYqdBehrOaeKhPrcEyB0Rc029eEQuE9uuBxe2xzxh9JslCrLkvzcIPncSx8dEq2beWiWv5FKYlqR15fiJsW6tp5NnbUBqb6RqS9l11f00pdNREcw14EbMSvkhpHbeIq6aA6m6dZs6vRModP5WraCqJqlW1Zxmpts0I0B1MFpYoA2VhfUmNZuYvjvaw3MseqKYoxQqTRDc+D/iHyf2b5u4s1V02aNJFdZCSacKlrrqxJbZU2LuMZZLgtXXXjt3O+Xt7HwxWemDd4TFozfRGVakmK84+VDEDzPC/gA+mIB+mIB+mIB+mIB+mIB+mIB+mIB+mIB+mIB+mIB+mIB+mIB+mIB+mIB+mKR8XrFBugLC17SJxQI+oJ5ErwkB/SFZPdCUINBXyhmGY+X5IC+8Fxdev00C/SF5uTaHQJBXwTc7wkDfVGYXd7YQyDoi0ZnLvGtQNAXFdtPs0BfZHJ/bswQCPpWoHNp/DQL9K3EE3vfM+hbkV3y0yzQtyrkPWGgb3VmcyQQ9K3O0/UY9MXhHBbnAgAAAAAAAAAAAAAAAAAAAAAAAAAAbIL/APPtB533qjL2AAAAAElFTkSuQmCC;" vertex="1" parent="QZHNi6gCAEQePnKjw-5V-1">
          <mxGeometry x="339" y="81.27" width="25.01" height="12.5" as="geometry" />
        </mxCell>
        <mxCell id="QZHNi6gCAEQePnKjw-5V-35" value="" style="shape=image;verticalLabelPosition=bottom;labelBackgroundColor=#ffffff;verticalAlign=top;aspect=fixed;imageAspect=0;image=data:image/png,iVBORw0KGgoAAAANSUhEUgAAAT4AAACfCAMAAABX0UX9AAAA8FBMVEX///9cTuUAAABAQLJbTOVVRuTNyfawq/FMTEz5+P5XSeQ1Na/Ly+mMguyjo9gvL65LOuP29vZERESGhoa1tbXU1NRhYWFZWVlSUlKkpKSbm5s/Pz/m5uYICAh4eHjt7e3Kyspvb2/o5vvV0vjAwMAdHR3Q0NDn5+e2trYpKSk2Njbc3NxSQuReXl4nJycQEBDDv/WMg+xvYujz8v2hmu/k4vqBd+pjVea6tfNwcMNGRraIiM0rK62Siu1/f3+RkZGqpPBdXbx3bOnb2PlqXedHNOMhIat6esi4uOHW1u5PT7iurtyclO6UlNG9ufNkZL4NU1eTAAAJe0lEQVR4nO2caUPaSBiAAYlcag0EIYAQEBAIghWv2gIe3dp23e7//zc7V5LJMTkIgq7v80WHJEPmSebNXCSRAAAAAAAAAAAAAAAAAAAAAAAAAAAA2Bb3T9s+g3fN/uFlZ9vn8I7Zz0vfb2fbPot3y34+mR4/7m77NN4rSF8ymU/vX237RN4nRF8yLaUvoQavANWHBX6/zW37ZN4fhj4kcHwNITAqlj4cAj9DCIwGrw/V4OQ9hMAo2PSREHgOITA8Dn0kBEI/LjQufTgEzqEfFxIPfagG32SgBofCSx8JgbsgMATe+rDAzxACgxHpS6bz6RdoxAQh1IefwRe32z69t46PPiTwLwiA/vjqSx6CPn+C9WXiDUbnDg7Wda5vkBD6Dh9PVs9/78uPD65PykvXK47E/HouFAofXR/uhlyukHfuYKewswP6SD8u6mB07ieWB/ok8m96vB8pBP76QuSBPokl8ofz0CGw8/yJ2QN9ZhLV4HC5Hvw25IE+Sx+qwcngkZjczztLHuiT+E/SUtCMOmqs7OyAPm99yTQKgT7dkM7Xb3Z7oM/xYVq6yIiy+/u3Qx7oc+rDIfC714x6bu/3J6c80OfWhxoxeXcjpvPsuvNAn7c+VIMd6ypnrqD3EfTNx37+xPpICDy38vn7wVve/1xfYvdCSq+kj4zms37c3oNH0PsQ+hKzjCQU6K8Pz6jj6aTZV6G7bek71bqaLm/muzovkqAGB+lDNRg9gvd+vC19einFKLY28oUnj94Cg/WlsT5xzeX1Ncoi1lvIbi9l0lhrzmL+PI49avBa9R2lRJTWWZL+sZXxcDN3H2L2knaHwLXqawv1LddZEP4qVTcU/jBXc1cNfo/6jExHw2mqvc6MA3E1Yt6hvj7N8khvnTZ0fY0Zh+H2u03ghvStM/YpNMv+GrOMQOclz9XgteqrHbUpR/TR2Gsb6cEaC6BSfRt7Zjh5+mw9g9eqz6JI4/qrnD7Vd7zBZ4aDnBUCX0ef/L/WhwRmbqjAjenTtS5C0M3S7TVRZnFN1vv4IK1vO8pbX4vs2he0ovvOvcvdwUDjkujstCgXpDNP5jemT65VUSMDMakvjGdlt55F4FT/rIdi4wInm6gIslqsoz/90llxSGLoca9eUWjZ1Gy1MqKxD++eLSo0f7UyIrv2RpWaYaFWRDvU8X9KpYe+p4oPaOCLUqrU8d7H5NvlxhIlUUt8WrV8huDkGoXAjehTpvxTmJVPYc9PrYr+qInEGU4OZVlFJZvoCc3x7O6RO3LpfKSrJKse/9FUpd9K+8Voax39KbPm4qBRm3C76i21zh0a6Wme+3MhbUJfzVHkBaev1iY9sBrrSxwr5MipljjtOY5Cn3noU7w+XHD6VHJZUuhg8kXDoW3P0ciWjNiHmd1vQF/XWbpU19LHKDk6zGgPe8EQEy9TA0dGlKWlj6EwfQFokfShRszr6yuyUxuOhqwSV2SnviPZrg+VNov+HE97k4l5G2o2fVOClmiNrE/MjS2nvlI4fWpEfZjX1cduvpHSkuUy65f0nfoWDn3IlNpUFa2vNxpltWgq0AfdbpMkjjWCbOZT6vb73RpzvXTqq9n19ez3tplsrqDvPOnjL1hf4e6nnz4W+egDt5UlCcWu7wgFdk7fZOnoUci05Gx4gDVcjI3sinRpqkzvwIpNX6+JMzT0Tc6URkseGLdqr6qipEaTZyvoSzy9iKeTAvUVnt2/j+P0yW2+6Kz2NXl9FVpyU1/J3Xaj4f9M5vWxKC8P7bcNvTdHDU5fm146qm9SY9nTC9lb6vxVWLGhv3stmg0J0Fd4+OWRHa+vSv6tsS2quYHpmxjhhumrlj3yW9BNLS999DAzaNEGT69s6htqbAvVZ479ZG2XlWlftZ+Uc4zEhNOH6q3ncixeX91WPFp23Jhl+ozCMX0jz7OjJrI++hRjV51u1YyDhuaQ1rHtOjJ9jrt2FX1XZEHQ7OXGKwT66Cvc/SNYSsTpa1F9wzplaEpi+sybjeoreuYXQ1/91NjiqW8Nd9/9xR/y9+raIwSK9X179qq3tEwufXZC6tMUlVKNoc+MpK+lLzOWruls+MlF3lmDRfoK/+6Jc1yHPlkdOlpqb1WflM6P6XqW2W3eEQK99RXuDvzWoK5DX9N11JvVR16xkSGBrPOSzAfpK9x99f8ZV5C+YbC+gfuoN6yPrGehS/pO9g/zvvo+fREGPaG+tsLTDdbnMW8SQV9q4/rwkr5HuqTv/NGqwS59hQefoMdw66u59vHX16KP6IouI6I/eaf9zetLpvNJ+p6w2b05o+7QVygchPj5Jd/uo6fpnqn013dq3kSYYH1ms5l2sa1m8wb1ca/YmM1ZCLTpK+x8DfUGE17fkeC8wujrsa1++kZ2DW1T2hb0ce8JO6FrYnh93/waKzz8kMHSoQltJRrC6MNPAMxCrM8IkmwqlA1SW0MGG9aHQqDE3hN2jufjLH2FB9fIigheH9PUq+mNRkPXu6U6rckBsY+OPC1OW61Gl7aaBfqMoYezLsrceODgurwlfdZ7wjr3Y8nQVyiIemge8Ppkc7hz2mODRG2u2AJ9coVuHmZHZuPZW1/LNSyNwBu3pY+EwHMi62qeJ8sjv+14DEuJsY02q67CEQ8BDRf3UQJ9Xi1E8iDZnj4skL0nbBcvD9+7Cxn0GPapIlf/YYqdBehrOaeKhPrcEyB0Rc029eEQuE9uuBxe2xzxh9JslCrLkvzcIPncSx8dEq2beWiWv5FKYlqR15fiJsW6tp5NnbUBqb6RqS9l11f00pdNREcw14EbMSvkhpHbeIq6aA6m6dZs6vRModP5WraCqJqlW1Zxmpts0I0B1MFpYoA2VhfUmNZuYvjvaw3MseqKYoxQqTRDc+D/iHyf2b5u4s1V02aNJFdZCSacKlrrqxJbZU2LuMZZLgtXXXjt3O+Xt7HwxWemDd4TFozfRGVakmK84+VDEDzPC/gA+mIB+mIB+mIB+mIB+mIB+mIB+mIB+mIB+mIB+mIB+mIB+mIB+mIB+mIB+mKR8XrFBugLC17SJxQI+oJ5ErwkB/SFZPdCUINBXyhmGY+X5IC+8Fxdev00C/SF5uTaHQJBXwTc7wkDfVGYXd7YQyDoi0ZnLvGtQNAXFdtPs0BfZHJ/bswQCPpWoHNp/DQL9K3EE3vfM+hbkV3y0yzQtyrkPWGgb3VmcyQQ9K3O0/UY9MXhHBbnAgAAAAAAAAAAAAAAAAAAAAAAAAAAbIL/APPtB533qjL2AAAAAElFTkSuQmCC;" vertex="1" parent="QZHNi6gCAEQePnKjw-5V-1">
          <mxGeometry x="482" y="81.27" width="25.01" height="12.5" as="geometry" />
        </mxCell>
        <mxCell id="QZHNi6gCAEQePnKjw-5V-37" value="&lt;span style=&quot;background-color: rgb(255, 255, 255);&quot;&gt;validate_plan.yml&lt;/span&gt;" style="text;html=1;align=center;verticalAlign=middle;resizable=0;points=[];autosize=1;fontFamily=Verdana;" vertex="1" parent="QZHNi6gCAEQePnKjw-5V-1">
          <mxGeometry x="139" y="120" width="120" height="20" as="geometry" />
        </mxCell>
        <mxCell id="QZHNi6gCAEQePnKjw-5V-38" value="&lt;span style=&quot;font-family: &amp;#34;menlo&amp;#34; , &amp;#34;monaco&amp;#34; , &amp;#34;courier new&amp;#34; , monospace ; background-color: rgb(255 , 255 , 255)&quot;&gt;Manual Approval&lt;/span&gt;" style="text;html=1;align=center;verticalAlign=middle;resizable=0;points=[];autosize=1;fontFamily=Verdana;" vertex="1" parent="QZHNi6gCAEQePnKjw-5V-1">
          <mxGeometry x="279" y="120" width="120" height="20" as="geometry" />
        </mxCell>
        <mxCell id="QZHNi6gCAEQePnKjw-5V-40" value="&lt;span style=&quot;font-family: &amp;#34;menlo&amp;#34; , &amp;#34;monaco&amp;#34; , &amp;#34;courier new&amp;#34; , monospace ; background-color: rgb(255 , 255 , 255)&quot;&gt;apply.yml&lt;/span&gt;" style="text;html=1;align=center;verticalAlign=middle;resizable=0;points=[];autosize=1;fontFamily=Verdana;" vertex="1" parent="QZHNi6gCAEQePnKjw-5V-1">
          <mxGeometry x="440.62" y="120" width="80" height="20" as="geometry" />
        </mxCell>
      </root>
    </mxGraphModel>
  </diagram>
  <diagram name="AllComponents" id="EqW1c8bIYQZr6a9rdBST">
    <mxGraphModel dx="1002" dy="435" grid="1" gridSize="10" guides="1" tooltips="1" connect="1" arrows="1" fold="1" page="1" pageScale="1" pageWidth="827" pageHeight="1169" math="0" shadow="0">
      <root>
        <mxCell id="jj7e1vxZbdHdzaXRkUtj-0" />
        <mxCell id="jj7e1vxZbdHdzaXRkUtj-1" parent="jj7e1vxZbdHdzaXRkUtj-0" />
        <mxCell id="jj7e1vxZbdHdzaXRkUtj-2" value="" style="rounded=1;whiteSpace=wrap;html=1;labelBackgroundColor=#ffffff;fontFamily=Verdana;align=center;" vertex="1" parent="jj7e1vxZbdHdzaXRkUtj-1">
          <mxGeometry x="30" y="30" width="510" height="120" as="geometry" />
        </mxCell>
        <mxCell id="jj7e1vxZbdHdzaXRkUtj-3" value="" style="edgeStyle=orthogonalEdgeStyle;rounded=0;orthogonalLoop=1;jettySize=auto;html=1;" edge="1" parent="jj7e1vxZbdHdzaXRkUtj-1" source="jj7e1vxZbdHdzaXRkUtj-4" target="jj7e1vxZbdHdzaXRkUtj-6">
          <mxGeometry relative="1" as="geometry" />
        </mxCell>
        <mxCell id="jj7e1vxZbdHdzaXRkUtj-4" value="&lt;p style=&quot;color: rgb(0 , 0 , 0) ; background-color: rgb(255 , 255 , 255) ; line-height: 18px&quot;&gt;&lt;br&gt;&lt;/p&gt;" style="outlineConnect=0;fontColor=#232F3E;gradientColor=#4D72F3;gradientDirection=north;fillColor=#3334B9;strokeColor=#ffffff;dashed=0;verticalLabelPosition=bottom;verticalAlign=top;align=center;html=1;fontSize=12;fontStyle=0;aspect=fixed;shape=mxgraph.aws4.resourceIcon;resIcon=mxgraph.aws4.codebuild;fontFamily=Verdana;" vertex="1" parent="jj7e1vxZbdHdzaXRkUtj-1">
          <mxGeometry x="160" y="40" width="78" height="78" as="geometry" />
        </mxCell>
        <mxCell id="jj7e1vxZbdHdzaXRkUtj-5" value="" style="edgeStyle=orthogonalEdgeStyle;rounded=0;orthogonalLoop=1;jettySize=auto;html=1;" edge="1" parent="jj7e1vxZbdHdzaXRkUtj-1" source="jj7e1vxZbdHdzaXRkUtj-6" target="jj7e1vxZbdHdzaXRkUtj-7">
          <mxGeometry relative="1" as="geometry" />
        </mxCell>
        <mxCell id="jj7e1vxZbdHdzaXRkUtj-6" value="&lt;div style=&quot;color: rgb(0 , 0 , 0) ; background-color: rgb(255 , 255 , 255) ; font-family: &amp;#34;menlo&amp;#34; , &amp;#34;monaco&amp;#34; , &amp;#34;courier new&amp;#34; , monospace ; line-height: 18px&quot;&gt;&lt;div style=&quot;font-family: &amp;#34;menlo&amp;#34; , &amp;#34;monaco&amp;#34; , &amp;#34;courier new&amp;#34; , monospace ; line-height: 18px&quot;&gt;&lt;br&gt;&lt;/div&gt;&lt;/div&gt;" style="outlineConnect=0;fontColor=#232F3E;gradientColor=#4D72F3;gradientDirection=north;fillColor=#3334B9;strokeColor=#ffffff;dashed=0;verticalLabelPosition=bottom;verticalAlign=top;align=center;html=1;fontSize=12;fontStyle=0;aspect=fixed;shape=mxgraph.aws4.resourceIcon;resIcon=mxgraph.aws4.codebuild;fontFamily=Verdana;" vertex="1" parent="jj7e1vxZbdHdzaXRkUtj-1">
          <mxGeometry x="300" y="40" width="78" height="78" as="geometry" />
        </mxCell>
        <mxCell id="jj7e1vxZbdHdzaXRkUtj-7" value="&lt;div style=&quot;color: rgb(0 , 0 , 0) ; background-color: rgb(255 , 255 , 255) ; font-family: &amp;#34;menlo&amp;#34; , &amp;#34;monaco&amp;#34; , &amp;#34;courier new&amp;#34; , monospace ; line-height: 18px&quot;&gt;&lt;div style=&quot;font-family: &amp;#34;menlo&amp;#34; , &amp;#34;monaco&amp;#34; , &amp;#34;courier new&amp;#34; , monospace ; line-height: 18px&quot;&gt;&lt;br&gt;&lt;/div&gt;&lt;/div&gt;" style="outlineConnect=0;fontColor=#232F3E;gradientColor=#4D72F3;gradientDirection=north;fillColor=#3334B9;strokeColor=#ffffff;dashed=0;verticalLabelPosition=bottom;verticalAlign=top;align=center;html=1;fontSize=12;fontStyle=0;aspect=fixed;shape=mxgraph.aws4.resourceIcon;resIcon=mxgraph.aws4.codebuild;fontFamily=Verdana;" vertex="1" parent="jj7e1vxZbdHdzaXRkUtj-1">
          <mxGeometry x="442.62" y="40" width="78" height="78" as="geometry" />
        </mxCell>
        <mxCell id="jj7e1vxZbdHdzaXRkUtj-8" value="" style="edgeStyle=orthogonalEdgeStyle;rounded=0;orthogonalLoop=1;jettySize=auto;html=1;fontFamily=Verdana;" edge="1" parent="jj7e1vxZbdHdzaXRkUtj-1" source="jj7e1vxZbdHdzaXRkUtj-9" target="jj7e1vxZbdHdzaXRkUtj-4">
          <mxGeometry relative="1" as="geometry">
            <mxPoint x="440" y="69" as="targetPoint" />
            <Array as="points" />
          </mxGeometry>
        </mxCell>
        <mxCell id="jj7e1vxZbdHdzaXRkUtj-9" value="&lt;span style=&quot;background-color: rgb(255 , 255 , 255)&quot;&gt;CodePipeline&lt;/span&gt;" style="outlineConnect=0;fontColor=#232F3E;gradientColor=#4D72F3;gradientDirection=north;fillColor=#3334B9;strokeColor=#ffffff;dashed=0;verticalLabelPosition=bottom;verticalAlign=top;align=center;html=1;fontSize=12;fontStyle=0;aspect=fixed;shape=mxgraph.aws4.resourceIcon;resIcon=mxgraph.aws4.codepipeline;fontFamily=Verdana;" vertex="1" parent="jj7e1vxZbdHdzaXRkUtj-1">
          <mxGeometry x="40" y="40" width="78" height="78" as="geometry" />
        </mxCell>
        <mxCell id="jj7e1vxZbdHdzaXRkUtj-10" value="" style="shape=image;verticalLabelPosition=bottom;labelBackgroundColor=#ffffff;verticalAlign=top;aspect=fixed;imageAspect=0;image=data:image/png,iVBORw0KGgoAAAANSUhEUgAAAT4AAACfCAMAAABX0UX9AAAA8FBMVEX///9cTuUAAABAQLJbTOVVRuTNyfawq/FMTEz5+P5XSeQ1Na/Ly+mMguyjo9gvL65LOuP29vZERESGhoa1tbXU1NRhYWFZWVlSUlKkpKSbm5s/Pz/m5uYICAh4eHjt7e3Kyspvb2/o5vvV0vjAwMAdHR3Q0NDn5+e2trYpKSk2Njbc3NxSQuReXl4nJycQEBDDv/WMg+xvYujz8v2hmu/k4vqBd+pjVea6tfNwcMNGRraIiM0rK62Siu1/f3+RkZGqpPBdXbx3bOnb2PlqXedHNOMhIat6esi4uOHW1u5PT7iurtyclO6UlNG9ufNkZL4NU1eTAAAJe0lEQVR4nO2caUPaSBiAAYlcag0EIYAQEBAIghWv2gIe3dp23e7//zc7V5LJMTkIgq7v80WHJEPmSebNXCSRAAAAAAAAAAAAAAAAAAAAAAAAAAAA2Bb3T9s+g3fN/uFlZ9vn8I7Zz0vfb2fbPot3y34+mR4/7m77NN4rSF8ymU/vX237RN4nRF8yLaUvoQavANWHBX6/zW37ZN4fhj4kcHwNITAqlj4cAj9DCIwGrw/V4OQ9hMAo2PSREHgOITA8Dn0kBEI/LjQufTgEzqEfFxIPfagG32SgBofCSx8JgbsgMATe+rDAzxACgxHpS6bz6RdoxAQh1IefwRe32z69t46PPiTwLwiA/vjqSx6CPn+C9WXiDUbnDg7Wda5vkBD6Dh9PVs9/78uPD65PykvXK47E/HouFAofXR/uhlyukHfuYKewswP6SD8u6mB07ieWB/ok8m96vB8pBP76QuSBPokl8ofz0CGw8/yJ2QN9ZhLV4HC5Hvw25IE+Sx+qwcngkZjczztLHuiT+E/SUtCMOmqs7OyAPm99yTQKgT7dkM7Xb3Z7oM/xYVq6yIiy+/u3Qx7oc+rDIfC714x6bu/3J6c80OfWhxoxeXcjpvPsuvNAn7c+VIMd6ypnrqD3EfTNx37+xPpICDy38vn7wVve/1xfYvdCSq+kj4zms37c3oNH0PsQ+hKzjCQU6K8Pz6jj6aTZV6G7bek71bqaLm/muzovkqAGB+lDNRg9gvd+vC19einFKLY28oUnj94Cg/WlsT5xzeX1Ncoi1lvIbi9l0lhrzmL+PI49avBa9R2lRJTWWZL+sZXxcDN3H2L2knaHwLXqawv1LddZEP4qVTcU/jBXc1cNfo/6jExHw2mqvc6MA3E1Yt6hvj7N8khvnTZ0fY0Zh+H2u03ghvStM/YpNMv+GrOMQOclz9XgteqrHbUpR/TR2Gsb6cEaC6BSfRt7Zjh5+mw9g9eqz6JI4/qrnD7Vd7zBZ4aDnBUCX0ef/L/WhwRmbqjAjenTtS5C0M3S7TVRZnFN1vv4IK1vO8pbX4vs2he0ovvOvcvdwUDjkujstCgXpDNP5jemT65VUSMDMakvjGdlt55F4FT/rIdi4wInm6gIslqsoz/90llxSGLoca9eUWjZ1Gy1MqKxD++eLSo0f7UyIrv2RpWaYaFWRDvU8X9KpYe+p4oPaOCLUqrU8d7H5NvlxhIlUUt8WrV8huDkGoXAjehTpvxTmJVPYc9PrYr+qInEGU4OZVlFJZvoCc3x7O6RO3LpfKSrJKse/9FUpd9K+8Voax39KbPm4qBRm3C76i21zh0a6Wme+3MhbUJfzVHkBaev1iY9sBrrSxwr5MipljjtOY5Cn3noU7w+XHD6VHJZUuhg8kXDoW3P0ciWjNiHmd1vQF/XWbpU19LHKDk6zGgPe8EQEy9TA0dGlKWlj6EwfQFokfShRszr6yuyUxuOhqwSV2SnviPZrg+VNov+HE97k4l5G2o2fVOClmiNrE/MjS2nvlI4fWpEfZjX1cduvpHSkuUy65f0nfoWDn3IlNpUFa2vNxpltWgq0AfdbpMkjjWCbOZT6vb73RpzvXTqq9n19ez3tplsrqDvPOnjL1hf4e6nnz4W+egDt5UlCcWu7wgFdk7fZOnoUci05Gx4gDVcjI3sinRpqkzvwIpNX6+JMzT0Tc6URkseGLdqr6qipEaTZyvoSzy9iKeTAvUVnt2/j+P0yW2+6Kz2NXl9FVpyU1/J3Xaj4f9M5vWxKC8P7bcNvTdHDU5fm146qm9SY9nTC9lb6vxVWLGhv3stmg0J0Fd4+OWRHa+vSv6tsS2quYHpmxjhhumrlj3yW9BNLS999DAzaNEGT69s6htqbAvVZ479ZG2XlWlftZ+Uc4zEhNOH6q3ncixeX91WPFp23Jhl+ozCMX0jz7OjJrI++hRjV51u1YyDhuaQ1rHtOjJ9jrt2FX1XZEHQ7OXGKwT66Cvc/SNYSsTpa1F9wzplaEpi+sybjeoreuYXQ1/91NjiqW8Nd9/9xR/y9+raIwSK9X179qq3tEwufXZC6tMUlVKNoc+MpK+lLzOWruls+MlF3lmDRfoK/+6Jc1yHPlkdOlpqb1WflM6P6XqW2W3eEQK99RXuDvzWoK5DX9N11JvVR16xkSGBrPOSzAfpK9x99f8ZV5C+YbC+gfuoN6yPrGehS/pO9g/zvvo+fREGPaG+tsLTDdbnMW8SQV9q4/rwkr5HuqTv/NGqwS59hQefoMdw66u59vHX16KP6IouI6I/eaf9zetLpvNJ+p6w2b05o+7QVygchPj5Jd/uo6fpnqn013dq3kSYYH1ms5l2sa1m8wb1ca/YmM1ZCLTpK+x8DfUGE17fkeC8wujrsa1++kZ2DW1T2hb0ce8JO6FrYnh93/waKzz8kMHSoQltJRrC6MNPAMxCrM8IkmwqlA1SW0MGG9aHQqDE3hN2jufjLH2FB9fIigheH9PUq+mNRkPXu6U6rckBsY+OPC1OW61Gl7aaBfqMoYezLsrceODgurwlfdZ7wjr3Y8nQVyiIemge8Ppkc7hz2mODRG2u2AJ9coVuHmZHZuPZW1/LNSyNwBu3pY+EwHMi62qeJ8sjv+14DEuJsY02q67CEQ8BDRf3UQJ9Xi1E8iDZnj4skL0nbBcvD9+7Cxn0GPapIlf/YYqdBehrOaeKhPrcEyB0Rc029eEQuE9uuBxe2xzxh9JslCrLkvzcIPncSx8dEq2beWiWv5FKYlqR15fiJsW6tp5NnbUBqb6RqS9l11f00pdNREcw14EbMSvkhpHbeIq6aA6m6dZs6vRModP5WraCqJqlW1Zxmpts0I0B1MFpYoA2VhfUmNZuYvjvaw3MseqKYoxQqTRDc+D/iHyf2b5u4s1V02aNJFdZCSacKlrrqxJbZU2LuMZZLgtXXXjt3O+Xt7HwxWemDd4TFozfRGVakmK84+VDEDzPC/gA+mIB+mIB+mIB+mIB+mIB+mIB+mIB+mIB+mIB+mIB+mIB+mIB+mIB+mIB+mKR8XrFBugLC17SJxQI+oJ5ErwkB/SFZPdCUINBXyhmGY+X5IC+8Fxdev00C/SF5uTaHQJBXwTc7wkDfVGYXd7YQyDoi0ZnLvGtQNAXFdtPs0BfZHJ/bswQCPpWoHNp/DQL9K3EE3vfM+hbkV3y0yzQtyrkPWGgb3VmcyQQ9K3O0/UY9MXhHBbnAgAAAAAAAAAAAAAAAAAAAAAAAAAAbIL/APPtB533qjL2AAAAAElFTkSuQmCC;" vertex="1" parent="jj7e1vxZbdHdzaXRkUtj-1">
          <mxGeometry x="198.99" y="81.27" width="25.01" height="12.5" as="geometry" />
        </mxCell>
        <mxCell id="jj7e1vxZbdHdzaXRkUtj-11" value="" style="group" vertex="1" connectable="0" parent="jj7e1vxZbdHdzaXRkUtj-1">
          <mxGeometry x="160" y="170" width="78" height="78" as="geometry" />
        </mxCell>
        <mxCell id="jj7e1vxZbdHdzaXRkUtj-12" value="S3&lt;br&gt;State / Artifacts" style="outlineConnect=0;fontColor=#232F3E;gradientColor=#60A337;gradientDirection=north;fillColor=#277116;strokeColor=#ffffff;dashed=0;verticalLabelPosition=bottom;verticalAlign=top;align=center;html=1;fontSize=12;fontStyle=0;aspect=fixed;shape=mxgraph.aws4.resourceIcon;resIcon=mxgraph.aws4.s3;fontFamily=Verdana;" vertex="1" parent="jj7e1vxZbdHdzaXRkUtj-11">
          <mxGeometry width="78" height="78" as="geometry" />
        </mxCell>
        <mxCell id="jj7e1vxZbdHdzaXRkUtj-13" value="" style="shape=image;verticalLabelPosition=bottom;labelBackgroundColor=#ffffff;verticalAlign=top;aspect=fixed;imageAspect=0;image=data:image/png,iVBORw0KGgoAAAANSUhEUgAAAT4AAACfCAMAAABX0UX9AAAA8FBMVEX///9cTuUAAABAQLJbTOVVRuTNyfawq/FMTEz5+P5XSeQ1Na/Ly+mMguyjo9gvL65LOuP29vZERESGhoa1tbXU1NRhYWFZWVlSUlKkpKSbm5s/Pz/m5uYICAh4eHjt7e3Kyspvb2/o5vvV0vjAwMAdHR3Q0NDn5+e2trYpKSk2Njbc3NxSQuReXl4nJycQEBDDv/WMg+xvYujz8v2hmu/k4vqBd+pjVea6tfNwcMNGRraIiM0rK62Siu1/f3+RkZGqpPBdXbx3bOnb2PlqXedHNOMhIat6esi4uOHW1u5PT7iurtyclO6UlNG9ufNkZL4NU1eTAAAJe0lEQVR4nO2caUPaSBiAAYlcag0EIYAQEBAIghWv2gIe3dp23e7//zc7V5LJMTkIgq7v80WHJEPmSebNXCSRAAAAAAAAAAAAAAAAAAAAAAAAAAAA2Bb3T9s+g3fN/uFlZ9vn8I7Zz0vfb2fbPot3y34+mR4/7m77NN4rSF8ymU/vX237RN4nRF8yLaUvoQavANWHBX6/zW37ZN4fhj4kcHwNITAqlj4cAj9DCIwGrw/V4OQ9hMAo2PSREHgOITA8Dn0kBEI/LjQufTgEzqEfFxIPfagG32SgBofCSx8JgbsgMATe+rDAzxACgxHpS6bz6RdoxAQh1IefwRe32z69t46PPiTwLwiA/vjqSx6CPn+C9WXiDUbnDg7Wda5vkBD6Dh9PVs9/78uPD65PykvXK47E/HouFAofXR/uhlyukHfuYKewswP6SD8u6mB07ieWB/ok8m96vB8pBP76QuSBPokl8ofz0CGw8/yJ2QN9ZhLV4HC5Hvw25IE+Sx+qwcngkZjczztLHuiT+E/SUtCMOmqs7OyAPm99yTQKgT7dkM7Xb3Z7oM/xYVq6yIiy+/u3Qx7oc+rDIfC714x6bu/3J6c80OfWhxoxeXcjpvPsuvNAn7c+VIMd6ypnrqD3EfTNx37+xPpICDy38vn7wVve/1xfYvdCSq+kj4zms37c3oNH0PsQ+hKzjCQU6K8Pz6jj6aTZV6G7bek71bqaLm/muzovkqAGB+lDNRg9gvd+vC19einFKLY28oUnj94Cg/WlsT5xzeX1Ncoi1lvIbi9l0lhrzmL+PI49avBa9R2lRJTWWZL+sZXxcDN3H2L2knaHwLXqawv1LddZEP4qVTcU/jBXc1cNfo/6jExHw2mqvc6MA3E1Yt6hvj7N8khvnTZ0fY0Zh+H2u03ghvStM/YpNMv+GrOMQOclz9XgteqrHbUpR/TR2Gsb6cEaC6BSfRt7Zjh5+mw9g9eqz6JI4/qrnD7Vd7zBZ4aDnBUCX0ef/L/WhwRmbqjAjenTtS5C0M3S7TVRZnFN1vv4IK1vO8pbX4vs2he0ovvOvcvdwUDjkujstCgXpDNP5jemT65VUSMDMakvjGdlt55F4FT/rIdi4wInm6gIslqsoz/90llxSGLoca9eUWjZ1Gy1MqKxD++eLSo0f7UyIrv2RpWaYaFWRDvU8X9KpYe+p4oPaOCLUqrU8d7H5NvlxhIlUUt8WrV8huDkGoXAjehTpvxTmJVPYc9PrYr+qInEGU4OZVlFJZvoCc3x7O6RO3LpfKSrJKse/9FUpd9K+8Voax39KbPm4qBRm3C76i21zh0a6Wme+3MhbUJfzVHkBaev1iY9sBrrSxwr5MipljjtOY5Cn3noU7w+XHD6VHJZUuhg8kXDoW3P0ciWjNiHmd1vQF/XWbpU19LHKDk6zGgPe8EQEy9TA0dGlKWlj6EwfQFokfShRszr6yuyUxuOhqwSV2SnviPZrg+VNov+HE97k4l5G2o2fVOClmiNrE/MjS2nvlI4fWpEfZjX1cduvpHSkuUy65f0nfoWDn3IlNpUFa2vNxpltWgq0AfdbpMkjjWCbOZT6vb73RpzvXTqq9n19ez3tplsrqDvPOnjL1hf4e6nnz4W+egDt5UlCcWu7wgFdk7fZOnoUci05Gx4gDVcjI3sinRpqkzvwIpNX6+JMzT0Tc6URkseGLdqr6qipEaTZyvoSzy9iKeTAvUVnt2/j+P0yW2+6Kz2NXl9FVpyU1/J3Xaj4f9M5vWxKC8P7bcNvTdHDU5fm146qm9SY9nTC9lb6vxVWLGhv3stmg0J0Fd4+OWRHa+vSv6tsS2quYHpmxjhhumrlj3yW9BNLS999DAzaNEGT69s6htqbAvVZ479ZG2XlWlftZ+Uc4zEhNOH6q3ncixeX91WPFp23Jhl+ozCMX0jz7OjJrI++hRjV51u1YyDhuaQ1rHtOjJ9jrt2FX1XZEHQ7OXGKwT66Cvc/SNYSsTpa1F9wzplaEpi+sybjeoreuYXQ1/91NjiqW8Nd9/9xR/y9+raIwSK9X179qq3tEwufXZC6tMUlVKNoc+MpK+lLzOWruls+MlF3lmDRfoK/+6Jc1yHPlkdOlpqb1WflM6P6XqW2W3eEQK99RXuDvzWoK5DX9N11JvVR16xkSGBrPOSzAfpK9x99f8ZV5C+YbC+gfuoN6yPrGehS/pO9g/zvvo+fREGPaG+tsLTDdbnMW8SQV9q4/rwkr5HuqTv/NGqwS59hQefoMdw66u59vHX16KP6IouI6I/eaf9zetLpvNJ+p6w2b05o+7QVygchPj5Jd/uo6fpnqn013dq3kSYYH1ms5l2sa1m8wb1ca/YmM1ZCLTpK+x8DfUGE17fkeC8wujrsa1++kZ2DW1T2hb0ce8JO6FrYnh93/waKzz8kMHSoQltJRrC6MNPAMxCrM8IkmwqlA1SW0MGG9aHQqDE3hN2jufjLH2FB9fIigheH9PUq+mNRkPXu6U6rckBsY+OPC1OW61Gl7aaBfqMoYezLsrceODgurwlfdZ7wjr3Y8nQVyiIemge8Ppkc7hz2mODRG2u2AJ9coVuHmZHZuPZW1/LNSyNwBu3pY+EwHMi62qeJ8sjv+14DEuJsY02q67CEQ8BDRf3UQJ9Xi1E8iDZnj4skL0nbBcvD9+7Cxn0GPapIlf/YYqdBehrOaeKhPrcEyB0Rc029eEQuE9uuBxe2xzxh9JslCrLkvzcIPncSx8dEq2beWiWv5FKYlqR15fiJsW6tp5NnbUBqb6RqS9l11f00pdNREcw14EbMSvkhpHbeIq6aA6m6dZs6vRModP5WraCqJqlW1Zxmpts0I0B1MFpYoA2VhfUmNZuYvjvaw3MseqKYoxQqTRDc+D/iHyf2b5u4s1V02aNJFdZCSacKlrrqxJbZU2LuMZZLgtXXXjt3O+Xt7HwxWemDd4TFozfRGVakmK84+VDEDzPC/gA+mIB+mIB+mIB+mIB+mIB+mIB+mIB+mIB+mIB+mIB+mIB+mIB+mIB+mIB+mKR8XrFBugLC17SJxQI+oJ5ErwkB/SFZPdCUINBXyhmGY+X5IC+8Fxdev00C/SF5uTaHQJBXwTc7wkDfVGYXd7YQyDoi0ZnLvGtQNAXFdtPs0BfZHJ/bswQCPpWoHNp/DQL9K3EE3vfM+hbkV3y0yzQtyrkPWGgb3VmcyQQ9K3O0/UY9MXhHBbnAgAAAAAAAAAAAAAAAAAAAAAAAAAAbIL/APPtB533qjL2AAAAAElFTkSuQmCC;" vertex="1" parent="jj7e1vxZbdHdzaXRkUtj-1">
          <mxGeometry x="339" y="81.27" width="25.01" height="12.5" as="geometry" />
        </mxCell>
        <mxCell id="jj7e1vxZbdHdzaXRkUtj-14" value="" style="shape=image;verticalLabelPosition=bottom;labelBackgroundColor=#ffffff;verticalAlign=top;aspect=fixed;imageAspect=0;image=data:image/png,iVBORw0KGgoAAAANSUhEUgAAAT4AAACfCAMAAABX0UX9AAAA8FBMVEX///9cTuUAAABAQLJbTOVVRuTNyfawq/FMTEz5+P5XSeQ1Na/Ly+mMguyjo9gvL65LOuP29vZERESGhoa1tbXU1NRhYWFZWVlSUlKkpKSbm5s/Pz/m5uYICAh4eHjt7e3Kyspvb2/o5vvV0vjAwMAdHR3Q0NDn5+e2trYpKSk2Njbc3NxSQuReXl4nJycQEBDDv/WMg+xvYujz8v2hmu/k4vqBd+pjVea6tfNwcMNGRraIiM0rK62Siu1/f3+RkZGqpPBdXbx3bOnb2PlqXedHNOMhIat6esi4uOHW1u5PT7iurtyclO6UlNG9ufNkZL4NU1eTAAAJe0lEQVR4nO2caUPaSBiAAYlcag0EIYAQEBAIghWv2gIe3dp23e7//zc7V5LJMTkIgq7v80WHJEPmSebNXCSRAAAAAAAAAAAAAAAAAAAAAAAAAAAA2Bb3T9s+g3fN/uFlZ9vn8I7Zz0vfb2fbPot3y34+mR4/7m77NN4rSF8ymU/vX237RN4nRF8yLaUvoQavANWHBX6/zW37ZN4fhj4kcHwNITAqlj4cAj9DCIwGrw/V4OQ9hMAo2PSREHgOITA8Dn0kBEI/LjQufTgEzqEfFxIPfagG32SgBofCSx8JgbsgMATe+rDAzxACgxHpS6bz6RdoxAQh1IefwRe32z69t46PPiTwLwiA/vjqSx6CPn+C9WXiDUbnDg7Wda5vkBD6Dh9PVs9/78uPD65PykvXK47E/HouFAofXR/uhlyukHfuYKewswP6SD8u6mB07ieWB/ok8m96vB8pBP76QuSBPokl8ofz0CGw8/yJ2QN9ZhLV4HC5Hvw25IE+Sx+qwcngkZjczztLHuiT+E/SUtCMOmqs7OyAPm99yTQKgT7dkM7Xb3Z7oM/xYVq6yIiy+/u3Qx7oc+rDIfC714x6bu/3J6c80OfWhxoxeXcjpvPsuvNAn7c+VIMd6ypnrqD3EfTNx37+xPpICDy38vn7wVve/1xfYvdCSq+kj4zms37c3oNH0PsQ+hKzjCQU6K8Pz6jj6aTZV6G7bek71bqaLm/muzovkqAGB+lDNRg9gvd+vC19einFKLY28oUnj94Cg/WlsT5xzeX1Ncoi1lvIbi9l0lhrzmL+PI49avBa9R2lRJTWWZL+sZXxcDN3H2L2knaHwLXqawv1LddZEP4qVTcU/jBXc1cNfo/6jExHw2mqvc6MA3E1Yt6hvj7N8khvnTZ0fY0Zh+H2u03ghvStM/YpNMv+GrOMQOclz9XgteqrHbUpR/TR2Gsb6cEaC6BSfRt7Zjh5+mw9g9eqz6JI4/qrnD7Vd7zBZ4aDnBUCX0ef/L/WhwRmbqjAjenTtS5C0M3S7TVRZnFN1vv4IK1vO8pbX4vs2he0ovvOvcvdwUDjkujstCgXpDNP5jemT65VUSMDMakvjGdlt55F4FT/rIdi4wInm6gIslqsoz/90llxSGLoca9eUWjZ1Gy1MqKxD++eLSo0f7UyIrv2RpWaYaFWRDvU8X9KpYe+p4oPaOCLUqrU8d7H5NvlxhIlUUt8WrV8huDkGoXAjehTpvxTmJVPYc9PrYr+qInEGU4OZVlFJZvoCc3x7O6RO3LpfKSrJKse/9FUpd9K+8Voax39KbPm4qBRm3C76i21zh0a6Wme+3MhbUJfzVHkBaev1iY9sBrrSxwr5MipljjtOY5Cn3noU7w+XHD6VHJZUuhg8kXDoW3P0ciWjNiHmd1vQF/XWbpU19LHKDk6zGgPe8EQEy9TA0dGlKWlj6EwfQFokfShRszr6yuyUxuOhqwSV2SnviPZrg+VNov+HE97k4l5G2o2fVOClmiNrE/MjS2nvlI4fWpEfZjX1cduvpHSkuUy65f0nfoWDn3IlNpUFa2vNxpltWgq0AfdbpMkjjWCbOZT6vb73RpzvXTqq9n19ez3tplsrqDvPOnjL1hf4e6nnz4W+egDt5UlCcWu7wgFdk7fZOnoUci05Gx4gDVcjI3sinRpqkzvwIpNX6+JMzT0Tc6URkseGLdqr6qipEaTZyvoSzy9iKeTAvUVnt2/j+P0yW2+6Kz2NXl9FVpyU1/J3Xaj4f9M5vWxKC8P7bcNvTdHDU5fm146qm9SY9nTC9lb6vxVWLGhv3stmg0J0Fd4+OWRHa+vSv6tsS2quYHpmxjhhumrlj3yW9BNLS999DAzaNEGT69s6htqbAvVZ479ZG2XlWlftZ+Uc4zEhNOH6q3ncixeX91WPFp23Jhl+ozCMX0jz7OjJrI++hRjV51u1YyDhuaQ1rHtOjJ9jrt2FX1XZEHQ7OXGKwT66Cvc/SNYSsTpa1F9wzplaEpi+sybjeoreuYXQ1/91NjiqW8Nd9/9xR/y9+raIwSK9X179qq3tEwufXZC6tMUlVKNoc+MpK+lLzOWruls+MlF3lmDRfoK/+6Jc1yHPlkdOlpqb1WflM6P6XqW2W3eEQK99RXuDvzWoK5DX9N11JvVR16xkSGBrPOSzAfpK9x99f8ZV5C+YbC+gfuoN6yPrGehS/pO9g/zvvo+fREGPaG+tsLTDdbnMW8SQV9q4/rwkr5HuqTv/NGqwS59hQefoMdw66u59vHX16KP6IouI6I/eaf9zetLpvNJ+p6w2b05o+7QVygchPj5Jd/uo6fpnqn013dq3kSYYH1ms5l2sa1m8wb1ca/YmM1ZCLTpK+x8DfUGE17fkeC8wujrsa1++kZ2DW1T2hb0ce8JO6FrYnh93/waKzz8kMHSoQltJRrC6MNPAMxCrM8IkmwqlA1SW0MGG9aHQqDE3hN2jufjLH2FB9fIigheH9PUq+mNRkPXu6U6rckBsY+OPC1OW61Gl7aaBfqMoYezLsrceODgurwlfdZ7wjr3Y8nQVyiIemge8Ppkc7hz2mODRG2u2AJ9coVuHmZHZuPZW1/LNSyNwBu3pY+EwHMi62qeJ8sjv+14DEuJsY02q67CEQ8BDRf3UQJ9Xi1E8iDZnj4skL0nbBcvD9+7Cxn0GPapIlf/YYqdBehrOaeKhPrcEyB0Rc029eEQuE9uuBxe2xzxh9JslCrLkvzcIPncSx8dEq2beWiWv5FKYlqR15fiJsW6tp5NnbUBqb6RqS9l11f00pdNREcw14EbMSvkhpHbeIq6aA6m6dZs6vRModP5WraCqJqlW1Zxmpts0I0B1MFpYoA2VhfUmNZuYvjvaw3MseqKYoxQqTRDc+D/iHyf2b5u4s1V02aNJFdZCSacKlrrqxJbZU2LuMZZLgtXXXjt3O+Xt7HwxWemDd4TFozfRGVakmK84+VDEDzPC/gA+mIB+mIB+mIB+mIB+mIB+mIB+mIB+mIB+mIB+mIB+mIB+mIB+mIB+mIB+mKR8XrFBugLC17SJxQI+oJ5ErwkB/SFZPdCUINBXyhmGY+X5IC+8Fxdev00C/SF5uTaHQJBXwTc7wkDfVGYXd7YQyDoi0ZnLvGtQNAXFdtPs0BfZHJ/bswQCPpWoHNp/DQL9K3EE3vfM+hbkV3y0yzQtyrkPWGgb3VmcyQQ9K3O0/UY9MXhHBbnAgAAAAAAAAAAAAAAAAAAAAAAAAAAbIL/APPtB533qjL2AAAAAElFTkSuQmCC;" vertex="1" parent="jj7e1vxZbdHdzaXRkUtj-1">
          <mxGeometry x="482" y="81.27" width="25.01" height="12.5" as="geometry" />
        </mxCell>
        <mxCell id="jj7e1vxZbdHdzaXRkUtj-15" value="&lt;span style=&quot;background-color: rgb(255, 255, 255);&quot;&gt;validate_plan.yml&lt;/span&gt;" style="text;html=1;align=center;verticalAlign=middle;resizable=0;points=[];autosize=1;fontFamily=Verdana;" vertex="1" parent="jj7e1vxZbdHdzaXRkUtj-1">
          <mxGeometry x="139" y="120" width="120" height="20" as="geometry" />
        </mxCell>
        <mxCell id="jj7e1vxZbdHdzaXRkUtj-16" value="&lt;span style=&quot;font-family: &amp;#34;menlo&amp;#34; , &amp;#34;monaco&amp;#34; , &amp;#34;courier new&amp;#34; , monospace ; background-color: rgb(255 , 255 , 255)&quot;&gt;Manual Approval&lt;/span&gt;" style="text;html=1;align=center;verticalAlign=middle;resizable=0;points=[];autosize=1;fontFamily=Verdana;" vertex="1" parent="jj7e1vxZbdHdzaXRkUtj-1">
          <mxGeometry x="279" y="120" width="120" height="20" as="geometry" />
        </mxCell>
        <mxCell id="jj7e1vxZbdHdzaXRkUtj-17" value="&lt;span style=&quot;font-family: &amp;#34;menlo&amp;#34; , &amp;#34;monaco&amp;#34; , &amp;#34;courier new&amp;#34; , monospace ; background-color: rgb(255 , 255 , 255)&quot;&gt;apply.yml&lt;/span&gt;" style="text;html=1;align=center;verticalAlign=middle;resizable=0;points=[];autosize=1;fontFamily=Verdana;" vertex="1" parent="jj7e1vxZbdHdzaXRkUtj-1">
          <mxGeometry x="440.62" y="120" width="80" height="20" as="geometry" />
        </mxCell>
        <mxCell id="jj7e1vxZbdHdzaXRkUtj-18" value="" style="group" vertex="1" connectable="0" parent="jj7e1vxZbdHdzaXRkUtj-1">
          <mxGeometry x="40" y="170" width="78" height="78" as="geometry" />
        </mxCell>
        <mxCell id="jj7e1vxZbdHdzaXRkUtj-19" value="&lt;div style=&quot;color: rgb(0 , 0 , 0) ; background-color: rgb(255 , 255 , 255) ; line-height: 18px&quot;&gt;&lt;div style=&quot;line-height: 18px&quot;&gt;&lt;p style=&quot;line-height: 18px&quot;&gt;destroy.yml&lt;/p&gt;&lt;/div&gt;&lt;/div&gt;" style="outlineConnect=0;fontColor=#232F3E;gradientColor=#4D72F3;gradientDirection=north;fillColor=#3334B9;strokeColor=#ffffff;dashed=0;verticalLabelPosition=bottom;verticalAlign=top;align=center;html=1;fontSize=12;fontStyle=0;aspect=fixed;shape=mxgraph.aws4.resourceIcon;resIcon=mxgraph.aws4.codebuild;fontFamily=Verdana;" vertex="1" parent="jj7e1vxZbdHdzaXRkUtj-18">
          <mxGeometry width="78" height="78" as="geometry" />
        </mxCell>
        <mxCell id="jj7e1vxZbdHdzaXRkUtj-20" value="" style="shape=image;verticalLabelPosition=bottom;labelBackgroundColor=#ffffff;verticalAlign=top;aspect=fixed;imageAspect=0;image=data:image/png,iVBORw0KGgoAAAANSUhEUgAAAT4AAACfCAMAAABX0UX9AAAA8FBMVEX///9cTuUAAABAQLJbTOVVRuTNyfawq/FMTEz5+P5XSeQ1Na/Ly+mMguyjo9gvL65LOuP29vZERESGhoa1tbXU1NRhYWFZWVlSUlKkpKSbm5s/Pz/m5uYICAh4eHjt7e3Kyspvb2/o5vvV0vjAwMAdHR3Q0NDn5+e2trYpKSk2Njbc3NxSQuReXl4nJycQEBDDv/WMg+xvYujz8v2hmu/k4vqBd+pjVea6tfNwcMNGRraIiM0rK62Siu1/f3+RkZGqpPBdXbx3bOnb2PlqXedHNOMhIat6esi4uOHW1u5PT7iurtyclO6UlNG9ufNkZL4NU1eTAAAJe0lEQVR4nO2caUPaSBiAAYlcag0EIYAQEBAIghWv2gIe3dp23e7//zc7V5LJMTkIgq7v80WHJEPmSebNXCSRAAAAAAAAAAAAAAAAAAAAAAAAAAAA2Bb3T9s+g3fN/uFlZ9vn8I7Zz0vfb2fbPot3y34+mR4/7m77NN4rSF8ymU/vX237RN4nRF8yLaUvoQavANWHBX6/zW37ZN4fhj4kcHwNITAqlj4cAj9DCIwGrw/V4OQ9hMAo2PSREHgOITA8Dn0kBEI/LjQufTgEzqEfFxIPfagG32SgBofCSx8JgbsgMATe+rDAzxACgxHpS6bz6RdoxAQh1IefwRe32z69t46PPiTwLwiA/vjqSx6CPn+C9WXiDUbnDg7Wda5vkBD6Dh9PVs9/78uPD65PykvXK47E/HouFAofXR/uhlyukHfuYKewswP6SD8u6mB07ieWB/ok8m96vB8pBP76QuSBPokl8ofz0CGw8/yJ2QN9ZhLV4HC5Hvw25IE+Sx+qwcngkZjczztLHuiT+E/SUtCMOmqs7OyAPm99yTQKgT7dkM7Xb3Z7oM/xYVq6yIiy+/u3Qx7oc+rDIfC714x6bu/3J6c80OfWhxoxeXcjpvPsuvNAn7c+VIMd6ypnrqD3EfTNx37+xPpICDy38vn7wVve/1xfYvdCSq+kj4zms37c3oNH0PsQ+hKzjCQU6K8Pz6jj6aTZV6G7bek71bqaLm/muzovkqAGB+lDNRg9gvd+vC19einFKLY28oUnj94Cg/WlsT5xzeX1Ncoi1lvIbi9l0lhrzmL+PI49avBa9R2lRJTWWZL+sZXxcDN3H2L2knaHwLXqawv1LddZEP4qVTcU/jBXc1cNfo/6jExHw2mqvc6MA3E1Yt6hvj7N8khvnTZ0fY0Zh+H2u03ghvStM/YpNMv+GrOMQOclz9XgteqrHbUpR/TR2Gsb6cEaC6BSfRt7Zjh5+mw9g9eqz6JI4/qrnD7Vd7zBZ4aDnBUCX0ef/L/WhwRmbqjAjenTtS5C0M3S7TVRZnFN1vv4IK1vO8pbX4vs2he0ovvOvcvdwUDjkujstCgXpDNP5jemT65VUSMDMakvjGdlt55F4FT/rIdi4wInm6gIslqsoz/90llxSGLoca9eUWjZ1Gy1MqKxD++eLSo0f7UyIrv2RpWaYaFWRDvU8X9KpYe+p4oPaOCLUqrU8d7H5NvlxhIlUUt8WrV8huDkGoXAjehTpvxTmJVPYc9PrYr+qInEGU4OZVlFJZvoCc3x7O6RO3LpfKSrJKse/9FUpd9K+8Voax39KbPm4qBRm3C76i21zh0a6Wme+3MhbUJfzVHkBaev1iY9sBrrSxwr5MipljjtOY5Cn3noU7w+XHD6VHJZUuhg8kXDoW3P0ciWjNiHmd1vQF/XWbpU19LHKDk6zGgPe8EQEy9TA0dGlKWlj6EwfQFokfShRszr6yuyUxuOhqwSV2SnviPZrg+VNov+HE97k4l5G2o2fVOClmiNrE/MjS2nvlI4fWpEfZjX1cduvpHSkuUy65f0nfoWDn3IlNpUFa2vNxpltWgq0AfdbpMkjjWCbOZT6vb73RpzvXTqq9n19ez3tplsrqDvPOnjL1hf4e6nnz4W+egDt5UlCcWu7wgFdk7fZOnoUci05Gx4gDVcjI3sinRpqkzvwIpNX6+JMzT0Tc6URkseGLdqr6qipEaTZyvoSzy9iKeTAvUVnt2/j+P0yW2+6Kz2NXl9FVpyU1/J3Xaj4f9M5vWxKC8P7bcNvTdHDU5fm146qm9SY9nTC9lb6vxVWLGhv3stmg0J0Fd4+OWRHa+vSv6tsS2quYHpmxjhhumrlj3yW9BNLS999DAzaNEGT69s6htqbAvVZ479ZG2XlWlftZ+Uc4zEhNOH6q3ncixeX91WPFp23Jhl+ozCMX0jz7OjJrI++hRjV51u1YyDhuaQ1rHtOjJ9jrt2FX1XZEHQ7OXGKwT66Cvc/SNYSsTpa1F9wzplaEpi+sybjeoreuYXQ1/91NjiqW8Nd9/9xR/y9+raIwSK9X179qq3tEwufXZC6tMUlVKNoc+MpK+lLzOWruls+MlF3lmDRfoK/+6Jc1yHPlkdOlpqb1WflM6P6XqW2W3eEQK99RXuDvzWoK5DX9N11JvVR16xkSGBrPOSzAfpK9x99f8ZV5C+YbC+gfuoN6yPrGehS/pO9g/zvvo+fREGPaG+tsLTDdbnMW8SQV9q4/rwkr5HuqTv/NGqwS59hQefoMdw66u59vHX16KP6IouI6I/eaf9zetLpvNJ+p6w2b05o+7QVygchPj5Jd/uo6fpnqn013dq3kSYYH1ms5l2sa1m8wb1ca/YmM1ZCLTpK+x8DfUGE17fkeC8wujrsa1++kZ2DW1T2hb0ce8JO6FrYnh93/waKzz8kMHSoQltJRrC6MNPAMxCrM8IkmwqlA1SW0MGG9aHQqDE3hN2jufjLH2FB9fIigheH9PUq+mNRkPXu6U6rckBsY+OPC1OW61Gl7aaBfqMoYezLsrceODgurwlfdZ7wjr3Y8nQVyiIemge8Ppkc7hz2mODRG2u2AJ9coVuHmZHZuPZW1/LNSyNwBu3pY+EwHMi62qeJ8sjv+14DEuJsY02q67CEQ8BDRf3UQJ9Xi1E8iDZnj4skL0nbBcvD9+7Cxn0GPapIlf/YYqdBehrOaeKhPrcEyB0Rc029eEQuE9uuBxe2xzxh9JslCrLkvzcIPncSx8dEq2beWiWv5FKYlqR15fiJsW6tp5NnbUBqb6RqS9l11f00pdNREcw14EbMSvkhpHbeIq6aA6m6dZs6vRModP5WraCqJqlW1Zxmpts0I0B1MFpYoA2VhfUmNZuYvjvaw3MseqKYoxQqTRDc+D/iHyf2b5u4s1V02aNJFdZCSacKlrrqxJbZU2LuMZZLgtXXXjt3O+Xt7HwxWemDd4TFozfRGVakmK84+VDEDzPC/gA+mIB+mIB+mIB+mIB+mIB+mIB+mIB+mIB+mIB+mIB+mIB+mIB+mIB+mIB+mKR8XrFBugLC17SJxQI+oJ5ErwkB/SFZPdCUINBXyhmGY+X5IC+8Fxdev00C/SF5uTaHQJBXwTc7wkDfVGYXd7YQyDoi0ZnLvGtQNAXFdtPs0BfZHJ/bswQCPpWoHNp/DQL9K3EE3vfM+hbkV3y0yzQtyrkPWGgb3VmcyQQ9K3O0/UY9MXhHBbnAgAAAAAAAAAAAAAAAAAAAAAAAAAAbIL/APPtB533qjL2AAAAAElFTkSuQmCC;" vertex="1" parent="jj7e1vxZbdHdzaXRkUtj-18">
          <mxGeometry x="38.99000000000001" y="41" width="25.01" height="12.5" as="geometry" />
        </mxCell>
      </root>
    </mxGraphModel>
  </diagram>
</mxfile>
